<svg xmlns="http://www.w3.org/2000/svg" id="Layer_1" data-name="Layer 1" viewBox="0 0 512 512" width="512" height="65" fill="#ffffff"><path d="M437.056,75.017A254.329,254.329,0,0,0,256.11,0h0c-.016,0-.031,0-.047,0S256.02,0,256,0a12,12,0,0,0-12,12V200a57.279,57.279,0,1,0,24,0V124.841C334.8,130.969,387.712,187.972,387.712,256c0,72.626-59.086,131.712-131.712,131.712S124.288,328.626,124.288,256a131.523,131.523,0,0,1,46.771-100.653,12,12,0,0,0-15.488-18.334A155.478,155.478,0,0,0,100.288,256c0,85.86,69.852,155.712,155.712,155.712S411.712,341.86,411.712,256A155.71,155.71,0,0,0,268,100.752V24.307C390.362,30.573,488,132.119,488,256c0,127.925-104.075,232-232,232S24,383.925,24,256A231.306,231.306,0,0,1,167.876,41.342a12,12,0,1,0-9.123-22.2,256.042,256.042,0,1,0,278.3,55.873ZM289.279,256A33.279,33.279,0,1,1,256,222.721,33.317,33.317,0,0,1,289.279,256Z"/></svg>


